<svg width="400" height="480" viewBox="0 0 400 480" fill="none" xmlns="http://www.w3.org/2000/svg">
<rect x="181" y="46" width="57" height="327" rx="7" fill="#090909"/>
<rect width="194.953" height="102.996" transform="matrix(-0.707107 -0.707107 -0.707107 0.707107 277.681 376.217)" fill="#090909"/>
<rect x="136" y="379.853" width="194.953" height="103.511" transform="rotate(-45 136 379.853)" fill="#090909"/>
<rect x="188" y="111" width="43" height="273" fill="#D9D9D9"/>
<rect x="67" y="245" width="78" height="66" fill="#090909"/>
<rect x="66.9639" y="245.118" width="56.7077" height="66.0514" transform="rotate(-45 66.9639 245.118)" fill="#090909"/>
<rect width="79" height="67" transform="matrix(-1 0 0 1 348 248)" fill="#090909"/>
<rect width="56.7718" height="67.391" transform="matrix(-0.707905 -0.706308 -0.707905 0.706308 347.896 248.205)" fill="#090909"/>
<rect width="181.689" height="43.8503" transform="matrix(-0.707107 -0.707107 -0.707107 0.707107 238.48 407.474)" fill="#D9D9D9"/>
<rect x="178.246" y="407.474" width="181.689" height="43.8503" transform="rotate(-45 178.246 407.474)" fill="#D9D9D9"/>
</svg>
